<svg xmlns="http://www.w3.org/2000/svg" width="294" height="294" viewBox="-25.59 -128.01 196.03 196.03"><title>33 lines drawn by Chunky</title><defs><g id="fox" transform="scale(0.87)" stroke="#1a1208" stroke-width="1.6" stroke-linejoin="round"><path d="M-6 0 Q-13 -7 -20 -1 Q-14 1 -20 1 Q-13 7 -6 0Z" fill="#fff"/><path d="M-20 -1 Q-17 0 -20 1 Q-23 0 -20 -1Z" fill="#e8722a" stroke-width="1"/><ellipse cx="-1" cy="0" rx="8" ry="5.5" fill="#fff"/><path d="M3 -6 L6 -11 L9 -5Z M3 6 L6 11 L9 5Z" fill="#fff"/><path d="M3 -5.5 Q8 -6 14 0 Q8 6 3 5.5 Q1 0 3 -5.5Z" fill="#fff"/><circle cx="14" cy="0" r="1.6" fill="#1a1208"/><path d="M8 -2.6 l1 0 M8 2.6 l1 0" stroke-width="1.8" stroke-linecap="round"/></g></defs><rect x="-25.59" y="-128.01" width="196.03" height="196.03" fill="#fffaf2"/><g fill="none" stroke-linecap="round" stroke-linejoin="round"><path d="M0 0L0 -60L51.96 -30L0 0" stroke="hsl(135, 70%, 45%)" stroke-width="2"/><path d="M0 0L0 -60L60 -60L60 0L0 0" stroke="hsl(180, 70%, 45%)" stroke-width="2"/><path d="M0 0L0 -60L57.06 -78.54L92.33 -30L57.06 18.54L0 0" stroke="hsl(225, 70%, 45%)" stroke-width="2"/><path d="M0 0L0 -60L51.96 -90L103.92 -60L103.92 0L51.96 30L0 0" stroke="hsl(270, 70%, 45%)" stroke-width="2"/><path d="M0 0L0 -60L46.91 -97.41L105.41 -84.06L131.44 -30L105.41 24.06L46.91 37.41L0 0" stroke="hsl(315, 70%, 45%)" stroke-width="2"/><path d="M0 0L0 -60L42.43 -102.43L102.43 -102.43L144.85 -60L144.85 0L102.43 42.43L42.43 42.43L0 0" stroke="hsl(360, 70%, 45%)" stroke-width="2"/></g><g transform="translate(0 0) rotate(-90)"><use href="#fox"/></g></svg>