<svg xmlns="http://www.w3.org/2000/svg" width="309" height="320" viewBox="-84.92 -186.8 205.77 213.6"><title>5 lines drawn by Chunky</title><style>@keyframes d{to{stroke-dashoffset:0}}@keyframes h{to{opacity:0}}@keyframes s{to{opacity:1}}.end{opacity:0;animation:s .001s 4s forwards}.run{animation:h .001s 4s forwards}@media (prefers-reduced-motion:reduce){path{animation:none!important;stroke-dashoffset:0!important}.run{display:none}.end{opacity:1!important;animation:none!important}}</style><defs><g id="fox" transform="scale(0.87)" stroke="#1a1208" stroke-width="1.6" stroke-linejoin="round"><path d="M-6 0 Q-13 -7 -20 -1 Q-14 1 -20 1 Q-13 7 -6 0Z" fill="#fff"/><path d="M-20 -1 Q-17 0 -20 1 Q-23 0 -20 -1Z" fill="#e8722a" stroke-width="1"/><ellipse cx="-1" cy="0" rx="8" ry="5.5" fill="#fff"/><path d="M3 -6 L6 -11 L9 -5Z M3 6 L6 11 L9 5Z" fill="#fff"/><path d="M3 -5.5 Q8 -6 14 0 Q8 6 3 5.5 Q1 0 3 -5.5Z" fill="#fff"/><circle cx="14" cy="0" r="1.6" fill="#1a1208"/><path d="M8 -2.6 l1 0 M8 2.6 l1 0" stroke-width="1.8" stroke-linecap="round"/></g></defs><rect x="-84.92" y="-186.8" width="205.77" height="213.6" fill="#fffaf2"/><g fill="none" stroke-linecap="round" stroke-linejoin="round"><path d="M0 0L0 -160L94.05 -30.56L-58.12 -80L94.05 -129.44L0 0" stroke="#e8722a" stroke-width="2" style="stroke-dasharray:800.67;stroke-dashoffset:800.67;animation:d 4s linear 0s forwards"/></g><g class="run"><use href="#fox"><animateMotion dur="4s" fill="freeze" rotate="auto" calcMode="paced" path="M0 0L0 -160L94.05 -30.56L-58.12 -80L94.05 -129.44L0 0"/></use></g><g class="end" transform="translate(0 0) rotate(-90)"><use href="#fox"/></g></svg>