<svg xmlns="http://www.w3.org/2000/svg" width="460" height="238" viewBox="0 0 460 238" font-family="'Atkinson Hyperlegible Mono', ui-monospace, Consolas, Menlo, monospace" font-size="12"><defs><marker id="og-arrow" viewBox="0 0 10 10" refX="9" refY="5" markerWidth="7" markerHeight="7" orient="auto-start-reverse"><path d="M0,0 L10,5 L0,10 z" fill="#c14a2e"/></marker></defs><rect width="100%" height="100%" fill="#fff"/><g class="frame"><rect x="12" y="12" width="100" height="66" fill="#fff" stroke="#1a1208" stroke-width="1.5" rx="3"/><text x="64" y="27" text-anchor="end" fill="#1a1208" font-weight="bold">pfanne</text><circle cx="83" cy="23" r="3.5" fill="#c14a2e"/><path d="M12,34 h100" stroke="#c9d1da"/><text x="64" y="49" text-anchor="end" fill="#1a1208" font-weight="bold">inhalt</text><circle cx="83" cy="45" r="3.5" fill="#c14a2e"/><path d="M12,56 h100" stroke="#c9d1da"/><text x="64" y="71" text-anchor="end" fill="#1a1208" font-weight="bold">zahl</text><text x="80" y="71" fill="#1a1208">42</text><path d="M72,12 v66" stroke="#c9d1da"/></g><g class="obj object"><rect x="182" y="12" width="112" height="66" fill="#fff" stroke="#1a1208" stroke-width="1.5" rx="3"/><path d="M182.8,34 v-18.25 q0,-3 3,-3 h104.5 q3,0 3,3 v18.25 z" fill="#fdeee3"/><path d="M182,34 h112" stroke="#1a1208"/><text x="190" y="27" fill="#1a1208" font-weight="bold">Pfanne</text><text x="286" y="27" text-anchor="end" fill="#5f5247" font-size="10">#1</text><text x="241" y="49" text-anchor="end" fill="#5f5247">@inhalt</text><circle cx="260" cy="45" r="3.5" fill="#c14a2e"/><path d="M182,56 h112" stroke="#c9d1da"/><text x="241" y="71" text-anchor="end" fill="#5f5247">@heiss</text><text x="257" y="71" fill="#1a1208">true</text><path d="M249,34 v44" stroke="#c9d1da"/></g><g class="obj array"><rect x="182" y="94" width="75.8" height="66" fill="#fff" stroke="#1a1208" stroke-width="1.5" rx="3"/><path d="M182.8,116 v-18.25 q0,-3 3,-3 h68.3 q3,0 3,3 v18.25 z" fill="#fdeee3"/><path d="M182,116 h75.8" stroke="#1a1208"/><text x="190" y="109" fill="#1a1208" font-weight="bold">Array</text><text x="249.8" y="109" text-anchor="end" fill="#5f5247" font-size="10">#2</text><text x="197" y="131" text-anchor="end" fill="#5f5247">0</text><circle cx="216" cy="127" r="3.5" fill="#c14a2e"/><path d="M182,138 h75.8" stroke="#c9d1da"/><text x="197" y="153" text-anchor="end" fill="#5f5247">1</text><circle cx="216" cy="149" r="3.5" fill="#c14a2e"/><path d="M205,116 v44" stroke="#c9d1da"/></g><g class="obj string"><rect x="364" y="116" width="83.2" height="44" fill="#fff" stroke="#1a1208" stroke-width="1.5" rx="3"/><path d="M364.8,138 v-18.25 q0,-3 3,-3 h75.7 q3,0 3,3 v18.25 z" fill="#eef2f6"/><path d="M364,138 h83.2" stroke="#1a1208"/><text x="372" y="131" fill="#1a1208" font-weight="bold">String</text><text x="439.2" y="131" text-anchor="end" fill="#5f5247" font-size="10">#3</text><text x="372" y="153" fill="#1a1208">&quot;Speck&quot;</text></g><g class="obj string"><rect x="364" y="176" width="83.2" height="44" fill="#fff" stroke="#1a1208" stroke-width="1.5" rx="3"/><path d="M364.8,198 v-18.25 q0,-3 3,-3 h75.7 q3,0 3,3 v18.25 z" fill="#eef2f6"/><path d="M364,198 h83.2" stroke="#1a1208"/><text x="372" y="191" fill="#1a1208" font-weight="bold">String</text><text x="439.2" y="191" text-anchor="end" fill="#5f5247" font-size="10">#4</text><text x="372" y="213" fill="#1a1208">&quot;Ei&quot;</text></g><path d="M83,23 C132,23 132,23 181,23" fill="none" stroke="#c14a2e" stroke-width="1.6" marker-end="url(#og-arrow)" opacity="0.9"/><path d="M83,45 C132,45 132,105 181,105" fill="none" stroke="#c14a2e" stroke-width="1.6" marker-end="url(#og-arrow)" opacity="0.9"/><path d="M260,45 C340,45 340,105 258.8,105" fill="none" stroke="#c14a2e" stroke-width="1.6" marker-end="url(#og-arrow)" opacity="0.9"/><path d="M216,127 C289.5,127 289.5,127 363,127" fill="none" stroke="#c14a2e" stroke-width="1.6" marker-end="url(#og-arrow)" opacity="0.9"/><path d="M216,149 C289.5,149 289.5,187 363,187" fill="none" stroke="#c14a2e" stroke-width="1.6" marker-end="url(#og-arrow)" opacity="0.9"/></svg>